<svg xmlns="http://www.w3.org/2000/svg" viewBox="0 0 1024 256" role="img" aria-label="Expensplit">
  <defs>
    <linearGradient id="bg2" x1="0" y1="0" x2="1" y2="1">
      <stop offset="0%"  stop-color="#6C5CE7"/>
      <stop offset="55%" stop-color="#44C4FF"/>
      <stop offset="100%" stop-color="#00B894"/>
    </linearGradient>
    <linearGradient id="text" x1="0" y1="0" x2="1" y2="0">
      <stop offset="0%"  stop-color="#6C5CE7"/>
      <stop offset="100%" stop-color="#00B894"/>
    </linearGradient>
    <linearGradient id="shine2" x1="0" y1="0" x2="0" y2="1">
      <stop offset="0%"  stop-color="#ffffff" stop-opacity="0.35"/>
      <stop offset="60%" stop-color="#ffffff" stop-opacity="0"/>
    </linearGradient>
  </defs>

  <!-- Icon badge -->
  <g>
    <rect x="16" y="16" width="224" height="224" rx="56" ry="56" fill="url(#bg2)"/>
    <rect x="16" y="16" width="224" height="224" rx="56" ry="56" fill="url(#shine2)"/>
    <g transform="translate(128 128)">
      <path d="M -60 -46 L -12 0 L -60 46 L -76 46 L -28 0 L -76 -46 Z" fill="#ffffff"/>
      <path d="M  60 -46 L  12 0 L  60 46 L  76 46 L  28 0 L  76 -46 Z" fill="#EAFFF7"/>
      <rect x="-3.5" y="-66" width="7" height="132" rx="3.5" fill="#ffffff"/>
      <path d="M -14 -44 Q 0 -56 14 -44" stroke="#ffffff" stroke-width="7" stroke-linecap="round" fill="none"/>
      <path d="M -14  44 Q 0  56 14  44" stroke="#ffffff" stroke-width="7" stroke-linecap="round" fill="none"/>
    </g>
  </g>

  <!-- Wordmark -->
  <g font-family="Plus Jakarta Sans, Inter, system-ui, sans-serif" font-weight="800">
    <text x="276" y="166" font-size="132" fill="url(#text)" letter-spacing="-4">Expen<tspan fill="#00B894">split</tspan></text>
  </g>
</svg>
