<svg xmlns="http://www.w3.org/2000/svg" viewBox="474 166 450 450" role="img">
  <title>Splitrack logo with matched gradient</title>
  <defs>
    <!-- Vertical gradient: purple top → teal bottom, matching reference exactly -->
    <linearGradient id="mainGrad" x1="0" y1="220" x2="0" y2="545" gradientUnits="userSpaceOnUse">
      <stop offset="0%"   stop-color="#8b79e8"/>
      <stop offset="45%"  stop-color="#7464dc"/>
      <stop offset="100%" stop-color="#29c5b5"/>
    </linearGradient>
    <!-- Teal bar -->
    <linearGradient id="tealBar" x1="503" y1="0" x2="900" y2="0" gradientUnits="userSpaceOnUse">
      <stop offset="0%"   stop-color="#1ec8b8"/>
      <stop offset="100%" stop-color="#25d4c4"/>
    </linearGradient>
  </defs>

  <!-- Top-right chunk -->
  <path d="M687.42 220.08 c.86 6.5 4.1 15.17 6.98 18.68 3.24 3.95 7.41 11.77 10.18
19.08 1.32 3.49 3.53 7.69 4.91 9.33 1.38 1.64 2.51 3.62 2.51 4.41 0 1.19
4.04 1.42 25 1.42 l25 0 0 20 c0 11 .21 20 .46 20 .25 0 11.39 -6.11 24.75
-13.58 13.36 -7.47 29.15 -16.3 35.09 -19.62 5.94 -3.32 10.66 -6.38 10.5
-6.79 -.16 -.42 -12.96 -13.64 -28.44 -29.38 l-28.15 -28.62 -44.73 0 -44.73
0 .67 5.08z M762 347.36 l0 10.36 5.25 .63 c7.57 .91 24.75 .79 24.75 -.17 0
-.45 -3.49 -3.22 -7.75 -6.16 -4.26 -2.94 -10.73 -7.52 -14.37 -10.18 -3.64
-2.66 -6.9 -4.84 -7.25 -4.84 -.35 0 -.63 4.66 -.63 10.36z" fill="url(#mainGrad)" fill-rule="evenodd" stroke="url(#mainGrad)" stroke-linejoin="round" stroke-width="0.80"/>

  <!-- Top-left chunk -->
  <path d="M616.52 224.98 l-9.94 9.98 2.59 2.77 c4.02 4.29 6.1 9.15 5.51 12.82 -.43
2.64 0 3.74 2.35 5.99 1.58 1.51 3.17 4.15 3.54 5.86 .37 1.71 2.19 5.59 4.05
8.63 1.86 3.04 3.39 6.19 3.39 7 0 .81 1.11 3.28 2.47 5.48 1.36 2.2 2.48
4.73 2.49 5.62 .04 1.88 3.75 6.88 5.1 6.88 .52 0 .93 -5.1 .93 -11.5 l0
-11.5 37.5 0 c20.57 0 30.58 .05 34.82 -.66 4.24 -.71 2.7 -2.16 .17 -5.17
-1.38 -1.64 -3.59 -5.84 -4.91 -9.33 -2.77 -7.3 -6.94 -15.13 -10.18 -19.08
-2.88 -3.51 -6.12 -12.18 -6.98 -18.68 l-.67 -5.08 -31.14 0 -31.14 0 -9.94
9.98z" fill="url(#mainGrad)" fill-rule="evenodd" stroke="url(#mainGrad)" stroke-linejoin="round" stroke-width="0.80"/>

  <!-- Far left tall block -->
  <path d="M587.71 253.79 l-19.73 19.75 .26 42.48 .26 42.48 35 0 35 0 .26 -31.32 c.25
-30.1 .19 -31.42 -1.75 -33.88 -1.11 -1.41 -2.03 -3.29 -2.05 -4.18 -.02 -.89
-1.14 -3.42 -2.49 -5.62 -1.36 -2.2 -2.47 -4.67 -2.47 -5.48 -0 -.81 -1.53
-3.96 -3.39 -7 -1.86 -3.04 -3.68 -6.92 -4.05 -8.63 -.37 -1.71 -1.96 -4.35
-3.54 -5.86 -2.34 -2.24 -2.77 -3.35 -2.35 -5.98 .62 -3.83 -2.11 -9.73 -6.37
-13.78 l-2.87 -2.73 -19.73 19.75z M608.46 402.06 c-.92 1.48 -.91 1.48 14.01
10.85 7.14 4.48 13.66 8.01 14.5 7.85 1.24 -.24 1.52 -2.07 1.52 -9.78 l0
-9.49 -14.67 -.28 c-9.98 -.19 -14.89 .08 -15.36 .84z M586 474.6 c-9.08 5.25
-16.9 9.93 -17.39 10.41 -.81 .79 43.95 47.99 45.51 47.99 .36 0 1.4 -1.14
2.31 -2.54 1.46 -2.23 1.52 -2.95 .46 -5.87 -.92 -2.55 -.94 -4.38 -.06 -7.87
.99 -3.94 .88 -5.12 -.83 -8.88 -1.08 -2.39 -1.98 -5.6 -1.99 -7.13 -.01
-1.53 -.92 -4.55 -2.02 -6.71 -1.1 -2.16 -2.01 -5.4 -2.02 -7.21 -.04 -5
-3.78 -18.04 -5.74 -19.99 -1.65 -1.64 -2.58 -1.24 -18.24 7.81z" fill="url(#mainGrad)" fill-rule="evenodd" stroke="url(#mainGrad)" stroke-linejoin="round" stroke-width="0.80"/>

  <!-- Middle receipt block + bar -->
  <path d="M652.67 286.67 c-.37 .37 -.67 17.02 -.67 37 l0 36.33 6.93 0 c6.82 0 6.94
-.04 7.25 -2.75 l.32 -2.75 14.68 -.28 14.68 -.28 .32 2.78 c.32 2.76 .37
2.78 8.64 3.07 8.03 .28 8.44 .19 11.78 -2.75 1.91 -1.67 4.12 -3.04 4.93
-3.04 .81 0 1.47 -.9 1.47 -2 0 -2.5 2.02 -2.64 2.66 -.18 .26 1 2.04 2.39
3.95 3.08 2.78 1.01 3.35 1.65 2.85 3.22 -.59 1.86 -.18 1.95 7.71 1.67 l8.33
-.29 .26 -36.75 .26 -36.75 -4.01 0 c-2.8 0 -4.01 .43 -4.01 1.42 0 .78 -1.15
2.79 -2.56 4.47 -5.04 5.99 -13.73 5 -17.74 -2.02 -1.93 -3.39 -2.65 -3.85
-5.95 -3.86 -2.77 -.01 -3.75 .41 -3.75 1.59 0 3.03 -6.5 8.4 -10.15 8.4
-4.45 -0 -9.21 -3.03 -10.8 -6.88 -1.13 -2.73 -1.77 -3.12 -5.17 -3.12 -2.69
0 -3.88 .44 -3.88 1.42 0 .78 -1.15 2.79 -2.56 4.47 -5.1 6.06 -14.71 4.8
-18.14 -2.38 -1.29 -2.71 -2.28 -3.51 -4.32 -3.51 -1.46 0 -2.95 .3 -3.31 .67z
m73.33 29.24 c0 1.23 1.1 2.28 3.09 2.98 4.63 1.61 3.14 3.62 -2.68 3.62
-4.12 0 -4.91 .3 -4.91 1.86 0 1.33 1.5 2.42 5.25 3.82 7.52 2.81 8.68 8.44
2.53 12.31 -1.76 1.11 -3.22 2.8 -3.24 3.76 -.05 2.32 -3.09 2.26 -3.7 -.07
-.26 -1 -2.05 -2.39 -3.96 -3.09 -4.16 -1.5 -4.42 -4.79 -.34 -4.28 7.31 .91
8.47 .73 8.47 -1.3 0 -1.44 -1.1 -2.36 -3.97 -3.3 -8.66 -2.84 -10.12 -8.71
-3.28 -13.12 2.06 -1.33 3.75 -3.02 3.75 -3.75 0 -.73 .67 -1.33 1.5 -1.33
.83 0 1.5 .86 1.5 1.9z m-18.5 5.6 l0 3 -20.5 0 -20.5 0 -.31 -3.27 -.31
-3.27 20.81 .27 20.81 .27 0 3z m-11.69 17.75 l-.31 3.25 -14.5 0 -14.5 0
-.31 -3.25 -.31 -3.25 15.13 0 15.13 0 -.31 3.25z M682 372 c-1.23 .8 -.55
1.86 3.75 5.83 3.8 3.51 5.25 5.59 5.25 7.51 l0 2.66 103.54 0 103.54 0 -.29
-8.25 -.29 -8.25 -107 -.24 c-68.15 -.15 -107.54 .12 -108.5 .74z M705.06
399.95 c-1.83 1.14 -.13 3.45 4.18 5.67 3.93 2.03 6.21 1.43 6.24 -1.64 .02
-1.94 .46 -2.41 2.02 -2.13 5.46 .99 10 .6 10 -.86 0 -1.22 -1.93 -1.54 -10.5
-1.72 -5.77 -.12 -11.15 .18 -11.94 .67z M733.46 402.07 c-.88 1.71 -2.89
3.53 -4.53 4.1 -1.88 .66 -2.94 1.72 -2.94 2.96 0 1.06 -.67 2.19 -1.5 2.51
-.83 .32 -1.5 1.2 -1.5 1.97 0 .77 .55 1.25 1.38 1.25 .83 0 1.62 1.03 1.62
2.14 0 1.1 .59 2 1.31 2 .72 0 2.18 .68 3.25 1.5 1.89 1.46 1.89 1.54 .19
2.86 -4.74 3.68 .1 10.38 9.4 13.03 4.78 1.36 6.99 2.39 8.01 .41 1.02 -1.98
.84 -6.99 .84 -17.69 0 -10.69 .14 -15.72 -.87 -18.07 -1 -2.35 -3.14 -2.04
-7.69 -2.04 -5.01 0 -5.51 .22 -6.98 3.07z M762 443.5 c0 41.34 -.05 42.5
-1.93 42.5 -1.06 0 -2.17 .79 -2.47 1.75 -.58 1.92 .77 23.06 2.3 35.75 .53
4.4 .99 11.04 1.03 14.75 l.07 6.75 6.89 0 6.89 0 29.11 -29.57 29.11 -29.57
0 -42.43 0 -42.43 -35.5 0 -35.5 0 0 42.5z" fill="url(#mainGrad)" fill-rule="evenodd" stroke="url(#mainGrad)" stroke-linejoin="round" stroke-width="0.80"/>

  <!-- Horizontal bar left -->
  <path d="M503.42 372.35 c-.28 .74 -.38 4.45 -.22 8.25 l.3 6.9 94.75 .26 94.75 .26 0
-2.62 c0 -1.88 -1.69 -4.29 -5.96 -8.51 l-5.96 -5.88 -88.57 0 c-73.41 0
-88.66 .23 -89.09 1.35z M652.71 399.63 c-.39 .39 -.71 17.06 -.71 37.04 l0
36.33 3.38 0 c2.82 0 3.59 -.5 4.64 -3.03 3.95 -9.53 18.13 -9.22 20.55 .45
.56 2.22 1.19 2.59 4.53 2.59 3.46 0 4.03 -.36 5.29 -3.37 3.88 -9.29 15.24
-9.07 20.13 .4 1.31 2.54 2.11 2.97 5.51 2.97 3.36 0 3.97 -.32 3.97 -2.08 0
-1.14 1.32 -3.39 2.92 -5 5.5 -5.5 14.99 -3.37 18.06 4.04 1.05 2.53 1.82
3.03 4.64 3.03 l3.38 0 0 -18.27 0 -18.27 -5.25 -1.24 c-2.89 -.68 -6.26
-1.51 -7.5 -1.84 -1.92 -.52 -2.25 -.22 -2.25 2.06 0 2.91 -3.97 7.57 -6.45
7.57 -.88 0 -1.55 .86 -1.55 2 0 1.11 -.67 2 -1.5 2 -.83 0 -1.5 -.84 -1.5
-1.88 0 -1.23 -.94 -2.08 -2.75 -2.47 -4.61 -1 -5.86 -2.21 -4.28 -4.12 .93
-1.12 1.66 -1.3 2.39 -.58 1.28 1.28 8.31 1.38 9.09 .13 1.21 -1.95 -.78
-3.94 -5 -5 -8.26 -2.08 -9.86 -9.86 -2.69 -13.02 1.86 -.82 3.24 -2.17 3.24
-3.17 0 -.95 .69 -1.8 1.38 -2.05 1 -.36 .88 -1.02 -.12 -2.71 -.69 -1.16
-1.25 -2.74 -1.25 -3.5 0 -1.26 -3.11 -2.4 -11.34 -4.13 -1.56 -.33 -3.89
-1.73 -5.17 -3.12 -1.86 -2.01 -3.12 -2.46 -6.16 -2.21 -3.63 .3 -3.84 .5
-4.14 4.06 l-.31 3.75 -14.38 0 -14.38 0 -.31 -3.75 -.31 -3.75 -6.54 -.29
c-3.6 -.16 -6.86 .03 -7.25 .42z m54.79 21.87 l0 3 -20.49 0 c-18.97 0 -20.51
-.13 -20.83 -1.81 -.9 -4.66 -.48 -4.75 21.05 -4.46 l20.27 .27 0 3z m-11.5
18.5 c0 3 0 3 -14.5 3 -14.5 0 -14.5 0 -14.5 -3 0 -3 0 -3 14.5 -3 14.5 0
14.5 0 14.5 3z M721.67 423.67 c-2.19 2.19 2.92 6.33 7.8 6.33 2.62 0 1.99
-5.64 -.72 -6.37 -3 -.8 -6.26 -.79 -7.08 .04z" fill="url(#mainGrad)" fill-rule="evenodd" stroke="url(#mainGrad)" stroke-linejoin="round" stroke-width="0.80"/>

  <!-- Bottom-left block -->
  <path d="M619.76 454.84 c-9.21 5.39 -17.03 10.09 -17.39 10.45 -.36 .36 -.14 1.28 .5
2.05 1.54 1.86 5.08 15.31 5.11 19.45 .01 1.81 .92 5.05 2.02 7.21 1.1 2.16
2.01 5.18 2.02 6.71 .01 1.53 .91 4.74 1.99 7.13 1.71 3.77 1.82 4.94 .83
8.88 -.89 3.55 -.87 5.3 .11 8.01 .94 2.59 .97 3.74 .15 4.57 -2.1 2.1 -1.07
4.29 4.68 9.98 l5.78 5.72 31.34 0 31.34 0 -.69 -2.25 c-2.54 -8.26 -3.91
-16.23 -5.18 -30.25 -.8 -8.8 -1.7 -18.36 -2 -21.25 l-.54 -5.25 -20.41 0
-20.41 0 0 -20.5 c0 -15.75 -.29 -20.49 -1.25 -20.48 -.69 .01 -8.78 4.43
-17.99 9.82z" fill="url(#mainGrad)" fill-rule="evenodd" stroke="url(#mainGrad)" stroke-linejoin="round" stroke-width="0.80"/>

  <!-- Bottom-right block -->
  <path d="M678.36 491.25 c.3 2.89 1.19 12.45 1.99 21.25 1.39 15.36 2.26 20.55 4.81
28.75 l1.17 3.75 38.49 0 38.49 0 -.71 -13.69 c-.39 -7.53 -1.09 -14.4 -1.56
-15.27 -.47 -.87 -1 -7.99 -1.19 -15.81 l-.34 -14.22 -40.84 -0 -40.84 -0 .54
5.25z" fill="url(#mainGrad)" fill-rule="evenodd" stroke="url(#mainGrad)" stroke-linejoin="round" stroke-width="0.80"/>

  <!-- Teal horizontal divider bar -->
  <rect x="503" y="372" width="392" height="16" rx="2" fill="url(#tealBar)"/>

</svg>
